<svg width="523" height="48" viewBox="0 0 523 48" fill="none" xmlns="http://www.w3.org/2000/svg">
<path d="M57.7724 15.8958C55.7052 17.612 53.3064 20.4593 50.5761 24.4377H53.443V46.6702H39.3429V45.7926H18.1636V46.6702H4.0635V24.4377H45.3691L42.6193 21.5124L2.1913 23.5601C2.11329 22.858 2.03528 22.312 1.95727 21.9219C1.45022 17.7095 0.904155 14.4136 0.31909 12.0343L8.15896 11.8588L14.3606 1.56169L30.3914 2.5563L25.3013 11.5078L34.3698 11.2738C33.0047 9.36255 31.62 7.06129 30.2159 4.37L42.9118 1.6787C45.2521 4.99407 47.7288 7.82188 50.3421 10.1621C52.9554 12.5024 55.4322 14.4136 57.7724 15.8958ZM18.1636 33.2137V35.905H39.3429V33.2137H18.1636ZM87.7277 36.022H115.226C115.226 37.7382 115.148 39.3179 114.992 40.761C114.836 42.9063 113.744 44.4274 111.715 45.3245C109.687 46.1826 106.762 46.6117 102.939 46.6117H92.9348H86.4406C86.1676 45.3245 85.719 44.1349 85.0949 43.0428C80.2194 42.3797 75.8509 42.0287 71.9895 41.9896C73.3937 38.4013 74.3493 35.1639 74.8563 32.2776H99.312V31.5755H73.1596V29.0597L72.8086 30.8734C71.2484 38.7913 70.1368 44.1154 69.4737 46.8457C64.4032 45.5975 60.5222 44.759 57.8309 44.3299C59.0401 40.9755 60.0347 37.7577 60.8148 34.6763C61.5949 31.556 62.3554 28.1821 63.0965 24.5547L67.075 25.1983C64.6177 23.8721 61.7119 22.7605 58.3575 21.8634L63.7986 12.9119C65.6708 13.458 68.0501 14.4331 70.9364 15.8373L72.8671 16.7149C72.8671 15.5057 72.7696 14.0821 72.5746 12.4439L75.0318 12.3269L75.9094 11.3908C75.2074 10.6107 74.3883 9.77209 73.4522 8.87499L70.7609 14.4916C66.7044 12.6194 62.4919 11.2543 58.1235 10.3962L63.0965 1.03513C64.8127 1.46418 67.3285 2.36128 70.6438 3.72643L73.6277 4.89655L74.4468 3.14136L75.2074 3.84344C75.9094 2.75132 76.4555 1.7177 76.8455 0.742598L81.409 2.02974L78.1912 6.82727L78.8933 7.58785C80.3364 5.59863 81.6626 3.4534 82.8717 1.15214L86.5576 2.32227H101.886V5.48162H86.5576V3.96045L85.563 5.36461C85.0559 6.1837 84.5099 6.98328 83.9248 7.76337L85.3875 7.52935C85.5045 8.58246 85.641 9.63558 85.797 10.6887C85.992 11.7418 86.1286 12.5024 86.2066 12.9704C86.5186 14.7646 86.7136 15.9933 86.7916 16.6564L83.5153 17.1244L83.3983 16.1298L82.5207 16.3053L82.2866 26.8365H76.67L76.8455 17.0659L74.1542 17.3584L73.6862 18.236L75.9094 18.1775V20.0497C75.9094 22.312 75.7924 24.5352 75.5584 26.7195C75.2464 26.6805 74.9343 26.6415 74.6223 26.6025C74.3493 26.5634 74.0177 26.5439 73.6277 26.5439L73.4522 27.48H113.822V35.4369H87.8447L87.7277 36.022ZM102.12 6.41772L103.641 3.14136L104.402 3.84344C105.104 2.75132 105.65 1.7177 106.04 0.742598L110.604 2.02974C109.161 4.21398 108.088 5.79366 107.386 6.76876L108.088 7.58785C109.531 5.67664 110.877 3.53141 112.125 1.15214L115.869 3.14136L112.71 7.82188L114.582 7.52935C114.933 10.4547 115.323 13.0485 115.752 15.3107L115.986 16.6564L112.71 17.1244L112.593 16.1298L111.715 16.3053L111.481 26.8365H105.865L106.04 17.0659C105.65 17.1049 104.266 17.2414 101.886 17.4754C101.886 15.4862 101.769 13.809 101.535 12.4439L104.285 12.3269L105.104 11.4493C104.324 10.5132 103.368 9.51856 102.237 8.46545V9.86961H86.3236V6.41772H102.12ZM111.54 9.57707L109.902 12.1514C110.448 12.1514 111.111 12.1124 111.891 12.0343L111.54 9.57707ZM80.824 12.1514L82.6962 12.0343C82.6572 11.6053 82.5597 10.9227 82.4036 9.98662L80.824 12.1514ZM87.4352 10.9227H100.95V14.1406H87.4352V10.9227ZM100.95 18.236H87.4352V15.0767H100.95V18.236ZM83.2812 26.5439C83.1642 23.0726 83.1057 20.2252 83.1057 18.002L86.0896 17.8265C86.0896 21.3369 86.1286 24.1257 86.2066 26.1929C85.6995 26.3099 84.7244 26.4269 83.2812 26.5439ZM115.226 17.8265C115.226 19.3867 115.265 20.7323 115.343 21.8634C115.421 22.9555 115.557 24.3792 115.752 26.1344C113.88 26.3684 112.788 26.5049 112.476 26.5439C112.359 23.0726 112.3 20.2252 112.3 18.002L115.226 17.8265ZM102.003 26.4854C102.276 23.9892 102.413 21.2394 102.413 18.236L105.104 18.1775V20.0497C105.104 22.312 104.987 24.5352 104.753 26.7195C103.193 26.5634 102.276 26.4854 102.003 26.4854ZM69.4152 25.6078L72.5746 26.1344C72.8476 24.7692 73.0231 23.5796 73.1011 22.5655C73.1791 21.5514 73.2181 20.3618 73.2181 18.9966L69.4152 25.6078ZM101.36 26.8365H87.0257V19.2306H101.36V26.8365ZM95.7431 22.4485H92.6423V23.8526H95.7431V22.4485ZM86.6161 39.7664L86.3821 40.41C89.9315 40.527 94.2025 40.5855 99.195 40.5855C100.053 40.5855 100.638 40.5465 100.95 40.4685C101.301 40.3515 101.496 40.1174 101.535 39.7664H86.6161ZM158.638 38.0697V38.8888H173.089V46.2021H130.554V40.0004C130.203 42.6527 129.657 45.032 128.916 47.1382C126.147 45.7731 123.885 44.72 122.13 43.9789C120.374 43.2378 118.502 42.6917 116.513 42.3407C117.293 40.2345 117.878 38.1867 118.268 36.1975C118.658 34.1693 118.931 31.478 119.087 28.1236C119.282 24.7692 119.38 20.0302 119.38 13.9066V2.90734L173.03 2.96584L173.089 12.2684H131.608C131.569 12.6194 131.549 12.9119 131.549 13.146C131.588 13.341 131.608 13.536 131.608 13.731V16.6564C131.608 19.3867 131.569 22.624 131.491 26.3684C132.739 26.1344 133.675 25.8809 134.299 25.6078C134.962 25.3348 135.489 24.9643 135.879 24.4962H132.368V19.2306H136.932V18.5871H132.953C132.992 16.9489 132.797 15.2132 132.368 13.38H134.708C139.077 13.38 144.362 13.2435 150.564 12.9704C150.174 14.9207 149.979 16.6564 149.979 18.1775L146.117 18.353V19.2306H150.564V24.4962H146.468C148.028 25.3153 149.842 25.8419 151.909 26.0759L151.383 26.5439C152.358 26.3099 153.177 26.0564 153.84 25.7834C154.542 25.4713 155.166 25.0423 155.712 24.4962H151.558V19.2306H156.356V18.5871H151.734C151.773 16.8709 151.558 15.1352 151.09 13.38H153.723C158.56 13.38 164.391 13.2435 171.216 12.9704C170.787 14.8036 170.573 16.5393 170.573 18.1775L165.892 18.353V19.2306H171.216V24.4962H166.536C167.979 25.4323 169.929 26.1149 172.387 26.5439C171.294 28.0261 170.534 30.1908 170.105 33.0382C168.194 32.3361 166.789 31.0684 165.892 29.2352V32.8041H158.638V33.6817H171.158V38.0697H158.638ZM131.432 27.48C131.315 31.6925 131.062 35.4954 130.671 38.8888H133.538V33.4477H145.298V38.8888H146.936V32.1021H148.691C147.677 31.556 146.819 31.0099 146.117 30.4639V32.8041H136.932V29.9958C136.113 31.4 134.981 32.4141 133.538 33.0382C133.382 31.907 133.148 30.9124 132.836 30.0543C132.524 29.1572 132.056 28.2991 131.432 27.48ZM152.085 32.1021C151.5 30.9319 150.798 29.7813 149.979 28.6502C149.589 29.4693 149.199 30.6199 148.808 32.1021H152.085ZM156.356 29.3523C155.81 30.2494 154.932 31.166 153.723 32.1021H156.356V29.3523ZM231.771 30.0543V41.1706H215.096V46.9627H202.283V41.1706H176.775V30.0543H184.38V25.5493C183.6 26.3684 182.762 27.1485 181.865 27.8896C180.89 25.0033 179.953 22.5265 179.056 20.4593C178.198 18.353 177.165 16.3443 175.955 14.4331C177.945 13.107 179.524 11.3128 180.694 9.05052C181.904 6.78826 182.528 4.23348 182.567 1.38617L195.789 1.50318C195.711 2.40028 195.594 3.35589 195.438 4.37H229.547V14.9012H215.096V17.4169H227.968V26.7195H215.096V30.0543H231.771ZM202.283 14.9012H192.045L190.699 17.4169H202.283V14.9012ZM196.959 26.7195V30.0543H202.283V26.7195H196.959ZM284.719 30.9904C285.499 32.1996 286.494 33.1357 287.703 33.7987C288.912 34.4618 290.414 34.8909 292.208 35.0859C291.35 36.7241 290.609 38.4598 289.985 40.293C289.399 42.0872 288.795 44.3689 288.171 47.1382C285.987 45.8121 284.036 44.0374 282.32 41.8141C282.359 42.0092 282.379 42.2822 282.379 42.6332C282.379 44.8175 281.287 46.0266 279.102 46.2606C276.801 46.4166 274.695 46.4946 272.784 46.4946C270.794 46.4946 268.883 46.4166 267.05 46.2606C265.763 46.1436 264.807 45.8511 264.183 45.383C263.598 44.876 263.306 44.1544 263.306 43.2183V43.0428C261.901 44.4859 260.127 45.8511 257.982 47.1382C257.318 43.9789 256.636 41.4241 255.934 39.4739L256.285 42.9843L256.402 44.2129L253.535 44.5639L250.844 44.915C250.649 38.2062 250.551 33.0382 250.551 29.4108L255.583 29.1182C255.583 31.7705 255.602 33.6622 255.641 34.7934C258.294 34.2083 260.224 32.9407 261.433 30.9904H256.285V27.5971L250.727 28.4747L250.61 27.246L249.498 27.4215V46.7287H241.015V28.5917C238.947 28.8647 236.763 29.0987 234.462 29.2937C234.462 25.7834 234.306 22.9165 233.994 20.6933L237.563 20.5763L239.084 18.6456C238.265 17.6315 237.348 16.5783 236.334 15.4862C235.32 14.3941 234.442 13.5165 233.701 12.8534L236.978 4.83805C237.797 5.65714 238.206 6.06669 238.206 6.06669C239.142 4.50651 240.02 2.73182 240.839 0.742598L248.445 2.84883C246.066 6.74926 244.291 9.55757 243.121 11.2738L243.823 12.0929C246.163 8.58246 248.23 5.03307 250.025 1.44467L257.045 3.84344H267.284L267.694 2.49779H277.347L276.938 3.84344H289.282V30.9904H284.719ZM254.413 12.5024L255.466 18.9966C255.7 20.1667 255.973 21.7659 256.285 23.7941V6.65175L252.248 12.8534L254.413 12.5024ZM265.119 10.7472V11.8588L267.226 10.9812C268.045 11.4103 268.649 11.8003 269.039 12.1514C269.351 11.8003 269.663 11.3323 269.975 10.7472H265.119ZM280.565 11.6248V10.7472H274.714L274.422 11.6248H280.565ZM265.119 14.9597C266.094 14.5306 266.718 14.2381 266.992 14.0821C266.445 13.653 265.821 13.224 265.119 12.7949V14.9597ZM274.948 16.9489C275.494 16.5588 276.021 16.0518 276.528 15.4277H272.725L274.948 16.9489ZM267.167 19.2306C266.66 18.4896 265.977 17.6315 265.119 16.6564V19.4062L267.167 19.2306ZM249.557 20.1667C249.362 18.9186 249.225 18.041 249.147 17.534L248.445 18.5871C248.289 18.8211 248.113 19.0746 247.918 19.3477C247.723 19.6207 247.509 19.9327 247.275 20.2838L249.557 20.1667ZM270.092 17.8265C269.507 18.3335 268.903 18.7821 268.279 19.1721C269.41 19.0551 270.365 18.8796 271.145 18.6456L270.092 17.8265ZM279.746 21.0443L277.815 23.3261H280.565V18.4701C280.097 19.0551 279.512 19.6792 278.81 20.3423L279.746 21.0443ZM265.119 23.3261H266.582C266.192 22.312 265.704 21.3369 265.119 20.4008V23.3261ZM276.06 22.2145C275.592 22.4875 274.812 22.858 273.72 23.3261H277.23L276.06 22.2145ZM235.047 29.9373C235.788 29.9373 236.822 29.8983 238.148 29.8203L240.02 29.7618V31.751C240.02 34.3253 239.981 36.6071 239.903 38.5963C239.825 40.5855 239.63 42.8087 239.318 45.266C239.006 45.227 238.343 45.149 237.329 45.032C236.354 44.876 235.203 44.798 233.877 44.798C234.384 42.2237 234.696 39.9029 234.813 37.8357C234.969 35.7295 235.047 33.0967 235.047 29.9373ZM271.848 30.9904H263.657C265.529 32.1606 267.167 33.0577 268.571 33.6817H269.917C269.605 33.2917 269.02 32.6676 268.162 31.8095L271.848 30.9904ZM278.927 32.3946C279.98 31.9655 281.033 31.4975 282.086 30.9904H277.172C278.147 31.8095 278.732 32.2776 278.927 32.3946ZM274.539 37.2506C275.085 37.2116 275.358 36.9971 275.358 36.6071C275.358 36.5681 275.28 36.1975 275.124 35.4954L272.14 36.3145L270.736 34.6178L270.443 36.256C270.404 36.373 270.385 36.5485 270.385 36.7826C270.385 37.1726 270.58 37.3676 270.97 37.3676C272.998 37.3676 274.188 37.3286 274.539 37.2506ZM275.533 35.4369C276.236 35.5539 276.918 35.6124 277.581 35.6124C278.088 35.6124 278.478 35.5929 278.751 35.5539L278.4 34.6178L275.533 35.4369ZM341.938 25.1398C343.147 25.9199 344.201 26.5244 345.098 26.9535C345.995 27.3825 346.97 27.7141 348.023 27.9481C348.647 31.1855 348.959 34.2083 348.959 37.0166C348.959 39.7469 348.647 41.8336 348.023 43.2768C347.594 44.2909 347.087 45.032 346.502 45.5C345.917 45.9291 345.41 46.1826 344.981 46.2606C344.552 46.2996 344.025 46.3191 343.401 46.3191H337.609C335.971 46.3191 334.703 46.1826 333.806 45.9096C332.948 45.5975 332.324 45.0905 331.934 44.3884C331.583 43.6473 331.407 42.5747 331.407 41.1706C331.407 40.7805 331.446 40.0004 331.524 38.8303L332.636 25.3153L331.349 25.4323C331.193 31.0879 330.861 35.4369 330.354 38.4793C329.847 41.4826 329.145 44.2909 328.248 46.9042C324.581 45.6561 321.578 44.759 319.238 44.2129L315.727 44.5639L312.568 44.915C312.334 38.8693 312.217 33.7012 312.217 29.4108L318.185 29.1182C318.185 33.2917 318.341 36.9386 318.653 40.0589C319.433 38.3037 320.057 36.3925 320.525 34.3253C320.993 32.2581 321.305 29.6253 321.461 26.4269L320.408 26.5439C320.252 24.5547 320.096 22.897 319.94 21.5709C319.784 20.2447 319.511 18.5871 319.121 16.5978L321.988 16.4223L323.684 12.6779H318.419V7.47084L314.206 12.8534L316.781 12.5024C317.639 16.2468 318.263 19.1916 318.653 21.3369C319.082 23.4431 319.394 25.5298 319.589 27.5971L312.393 28.5332L312.276 27.246L311.164 27.4215V46.7287H300.808V28.5917C298.39 28.8647 295.816 29.0987 293.085 29.2937C293.085 25.7834 292.929 22.9165 292.617 20.6933L296.771 20.5763L298.644 18.6456C297.629 17.5925 296.518 16.5198 295.309 15.4277C294.1 14.3356 293.066 13.4775 292.208 12.8534L296.069 4.83805L297.59 6.06669C298.488 4.81855 299.502 3.04385 300.633 0.742598L309.701 2.84883L308.707 4.19448C306.327 7.50984 304.572 9.8696 303.441 11.2738L304.202 12.0929C306.893 8.58246 309.37 5.03307 311.632 1.44467L319.589 3.72643H327.195V1.56169H337.901V3.72643H348.257V12.6779H343.986C346.092 14.6671 348.335 16.5198 350.714 18.236C349.583 19.1331 348.394 20.2838 347.145 21.6879C345.936 23.0921 344.942 24.4377 344.162 25.7249L342.64 24.2622L341.997 24.3207L341.938 25.1398ZM334.157 12.6779L332.811 15.7202L335.561 15.5447C335.015 14.7646 334.625 14.1796 334.391 13.7895L338.662 12.6779H334.157ZM310.696 17.3584C309.604 18.6846 308.824 19.6597 308.356 20.2838L311.222 20.1667L310.696 17.3584ZM341.178 33.9158V34.0328C341.178 34.3058 341.236 34.5398 341.353 34.7348C341.509 34.8909 341.685 34.9689 341.88 34.9689C342.075 34.9689 342.25 34.8714 342.406 34.6763C342.562 34.4813 342.64 34.2083 342.64 33.8573C342.64 31.907 342.367 29.4498 341.821 26.4854L341.178 33.9158ZM293.846 29.9373C294.626 29.9373 295.835 29.8983 297.473 29.8203L299.814 29.7618C299.814 33.2332 299.755 36.0025 299.638 38.0697C299.56 40.0979 299.287 42.4967 298.819 45.266C298.546 45.227 297.805 45.149 296.596 45.032C295.426 44.876 294.022 44.798 292.383 44.798C293.007 42.2237 293.397 39.9029 293.553 37.8357C293.748 35.7685 293.846 33.1357 293.846 29.9373ZM419.88 11.2738L418.944 13.7895C417.345 18.08 416.233 20.9468 415.609 22.39C418.184 26.3684 419.471 29.9178 419.471 33.0382C419.471 36.5876 418.535 39.3179 416.662 41.2291C414.829 43.1013 412.294 43.9984 409.057 43.9204C408.628 40.332 407.867 37.4261 406.775 35.2029V46.4361H395.834V9.8111L394.02 12.4439H394.488V20.2838H387.409L386.883 20.7518L386.122 21.3954H394.43V46.7872H383.548V46.2021H377.112V46.7872H366.113V33.5647L364.416 34.2668C364.065 30.0933 363.266 26.4854 362.017 23.4431C364.787 23.0141 367.146 22.585 369.097 22.156C371.047 21.6879 372.861 21.0638 374.538 20.2838H363.422V12.4439H369.682V11.2153H364.533V3.25837H369.682V1.6787H381.559V3.25837H387.819V5.3061C387.975 4.99407 388.111 4.70153 388.228 4.4285C388.384 4.11647 388.521 3.84344 388.638 3.60941L389.164 2.38078L395.834 4.83805V2.73182H416.896L419.88 11.2738ZM381.559 11.2153V12.4439H383.665L384.542 11.2153H381.559ZM406.775 12.6194V19.5817C408.101 16.8514 408.784 14.5306 408.823 12.6194H406.775ZM406.775 33.0382C407.321 32.8041 407.769 32.4531 408.12 31.985C408.472 31.517 408.647 30.9514 408.647 30.2884C408.647 28.9622 408.023 27.441 406.775 25.7249V33.0382ZM377.112 30.0543H383.548V28.5332H377.112V30.0543ZM377.112 36.6071V38.1867H383.548V36.6071H377.112ZM478.27 23.4431V29.8203H471.951C473.433 30.7174 475.422 31.5365 477.919 32.2776C477.919 36.6461 477.782 39.8444 477.509 41.8726C477.275 43.8619 476.866 45.1685 476.281 45.7926C475.695 46.3776 474.798 46.6702 473.589 46.6702C471.444 46.6702 469.474 46.5141 467.68 46.2021C465.925 45.8511 464.053 45.3245 462.063 44.6224C460.269 43.9984 458.514 43.2378 456.798 42.3407C453.6 43.9009 448.841 45.4025 442.522 46.8457C439.948 45.0905 437.393 43.6473 434.858 42.5162C434.468 44.0374 433.766 45.5 432.752 46.9042L427.779 45.5C424.268 44.4859 422.045 43.8619 421.109 43.6278C422.084 42.5357 422.786 41.3851 423.215 40.1759C423.683 38.9278 423.976 37.5627 424.093 36.0805C424.21 34.5983 424.268 32.5116 424.268 29.8203H421.987V23.4431H445.448C445.097 20.0497 444.921 15.4082 444.921 9.51856V5.65714C444.999 5.57913 444.277 6.41772 442.756 8.17292L441.235 9.98662L443.341 9.75259C443.575 14.3941 444.024 18.5286 444.687 22.156L439.48 22.7995L439.304 21.5709C435.287 21.8829 432.615 22.078 431.289 22.156C426.609 22.468 423.41 22.702 421.694 22.858L421.46 16.0713C423.488 15.9933 425.243 15.9543 426.726 15.9543C424.892 13.497 423.176 11.5663 421.577 10.1621L425.321 4.83805L426.375 5.94967C427.428 4.54552 428.403 3.02435 429.3 1.38617L436.204 3.78493C433.746 6.86627 431.894 9.08952 430.645 10.4547L431.348 11.1567C433.688 8.42644 435.95 5.65714 438.134 2.84883L444.921 5.42311L444.98 1.62019H455.979V6.2422L456.973 4.83805L457.851 5.83266C458.982 4.23348 459.801 2.90734 460.308 1.85422L467.329 3.4924C465.379 6.69075 463.819 9.12852 462.649 10.8057L463.351 11.5663C465.652 8.17292 467.641 5.11108 469.318 2.38078L476.983 4.31149L473.18 10.0451L475.929 9.75259C476.086 12.0148 476.846 16.1493 478.211 22.156L472.244 22.7995C472.166 22.5265 472.088 22.117 472.01 21.5709L465.632 22.0975C466.802 22.5265 467.856 22.9751 468.792 23.4431H478.27ZM455.979 16.0128C457.032 16.0128 457.851 15.9933 458.436 15.9543L455.979 12.9119V16.0128ZM438.661 15.6617C438.583 15.1157 438.505 14.2966 438.427 13.2045C437.92 13.8285 437.647 14.1601 437.608 14.1991C436.672 15.2522 436.223 15.7593 436.262 15.7202C437.354 15.7202 438.154 15.7007 438.661 15.6617ZM471.015 15.6617C470.937 15.1937 470.859 14.5306 470.781 13.6725L469.377 15.7202L471.015 15.6617ZM456.33 22.9165C456.369 23.0336 456.388 23.2091 456.388 23.4431H461.127L462.005 22.4485C460.406 22.5265 458.514 22.6825 456.33 22.9165ZM447.846 32.7456C447.534 32.0436 447.164 31.0684 446.735 29.8203H437.432C440.865 31.1855 444.336 32.1606 447.846 32.7456ZM459.372 31.751C460.542 30.8929 461.361 30.2494 461.829 29.8203H458.202C458.514 30.4054 458.904 31.0489 459.372 31.751ZM468.616 33.5062C468.694 32.8041 468.772 31.5755 468.85 29.8203H462.649L468.616 33.5062ZM448.314 33.7402C447.378 34.6373 445.994 36.1585 444.16 38.3037C446.228 37.8357 448.197 37.2701 450.07 36.6071C449.407 35.671 448.822 34.7153 448.314 33.7402ZM467.212 36.6071C467.524 36.7631 467.797 36.6851 468.031 36.373C468.265 36.022 468.46 35.1834 468.616 33.8573L466.042 36.139L467.212 36.6071ZM435.677 37.0751C435.599 38.3232 435.521 39.2593 435.443 39.8834C436.808 39.7274 438.524 39.4544 440.592 39.0643C438.758 38.4403 437.12 37.7772 435.677 37.0751ZM501.731 0.333051C505.436 0.333051 508.849 0.95712 511.969 2.20526C515.129 3.4534 517.625 5.18909 519.458 7.41233C521.291 9.63558 522.208 12.1904 522.208 15.0767C522.208 17.4169 521.643 19.4257 520.511 21.1028C519.38 22.78 517.937 24.1452 516.182 25.1983L513.081 26.9535C511.404 27.8896 510.292 28.5332 509.746 28.8842C508.849 29.4303 508.225 30.0348 507.874 30.6979C507.523 31.361 507.347 32.1411 507.347 33.0382H493.949C493.949 30.0738 494.652 27.5971 496.056 25.6078C497.46 23.5796 499.82 21.8244 503.135 20.3423C504.617 19.6792 505.69 18.9576 506.353 18.1775C507.055 17.3584 507.406 16.4418 507.406 15.4277C507.406 14.2966 506.86 13.3215 505.768 12.5024C504.715 11.6833 503.369 11.2738 501.731 11.2738C499.508 11.2738 497.772 11.8198 496.524 12.9119C495.315 14.0041 494.71 15.5447 494.71 17.534C494.71 18.314 494.827 19.2111 495.061 20.2252C491.941 19.3281 487.28 18.8796 481.078 18.8796C481.039 18.5286 481.02 18.041 481.02 17.4169C481.02 14.1406 481.878 11.2153 483.594 8.64097C485.349 6.02768 487.787 3.99946 490.907 2.5563C494.066 1.07413 497.674 0.333051 501.731 0.333051ZM507.406 47.8403H493.832V37.4261H507.406V47.8403Z" fill="#334155"/>
</svg>
